<?xml version="1.0" standalone="no"?>
<!DOCTYPE svg PUBLIC "-//W3C//DTD SVG 1.1//EN"
  "http://www.w3.org/Graphics/SVG/1.1/DTD/svg11.dtd">
<svg width="207.9116668701172mm" height="303.99999999999994mm" viewBox="-108.91166687011719 -157.99999999999997 207.9116668701172 303.99999999999994" xmlns="http://www.w3.org/2000/svg" version="1.1">
	<title>svgOutput</title>
	<desc>made with tinkercad</desc>
<path d="M 98 -86.00299835205077 L 94.99800109863281 -86.00299835205077 L 94.99800109863281 -65.9980010986328 L 98 -65.9980010986328 L 98 -46.002998352050774 L 94.99800109863281 -46.002998352050774 L 94.99800109863281 -25.997999191284173 L 98 -25.997999191284173 L 98 -5.999999999999998 L 94.99800109863281 -5.999999999999998 L 83.00299835205078 -5.999999999999998 L 83.00299835205078 -9.003000259399412 L 62.99800109863281 -9.003000259399412 L 62.99800109863281 -5.999999999999998 L 51.00299835205078 -5.999999999999998 L 48 -5.999999999999998 L 48 -25.997999191284173 L 51.00299835205078 -25.997999191284173 L 51.00299835205078 -46.002998352050774 L 48 -46.002998352050774 L 48 -65.9980010986328 L 51.00299835205078 -65.9980010986328 L 51.00299835205078 -86.00299835205077 L 48 -86.00299835205077 L 48 -105.99999999999997 L 51.00299835205078 -105.99999999999997 L 62.99800109863281 -105.99999999999997 L 62.99800109863281 -102.99800109863278 L 83.00299835205078 -102.99800109863278 L 83.00299835205078 -105.99999999999997 L 94.99800109863281 -105.99999999999997 L 98 -105.99999999999997 L 98 -86.00299835205077 M -107.91166687011719 -105.99999999999997 L -104.9530029296875 -105.99999999999997 L -92.95800018310547 -105.99999999999997 L -92.95800018310547 -102.99800109863278 L -79.2958984375 -102.99800109863278 L -79.2958984375 -62.00299835205077 L -89.95800018310547 -62.00299835205077 L -89.95800018310547 -49.9980010986328 L -79.2958984375 -49.9980010986328 L -79.2958984375 -9.003000259399412 L -92.95800018310547 -9.003000259399412 L -92.95800018310547 -5.999999999999998 L -104.9530029296875 -5.999999999999998 L -107.91166687011719 -5.999999999999998 L -107.91166687011719 -25.997999191284173 L -104.9530029296875 -25.997999191284173 L -104.9530029296875 -46.002998352050774 L -107.91166687011719 -46.002998352050774 L -107.91166687011719 -65.9980010986328 L -104.9530029296875 -65.9980010986328 L -104.9530029296875 -86.00299835205077 L -107.91166687011719 -86.00299835205077 L -107.91166687011719 -105.99999999999997 M 43.99800109863281 -105.99999999999997 L 43.99800109863281 -102.99800109863278 L 43.99800109863281 -85.9980010986328 L 47 -85.9980010986328 L 47 -66.00299835205077 L 43.99800109863281 -66.00299835205077 L 43.99800109863281 -45.998001098632805 L 47 -45.998001098632805 L 47 -26.003000259399407 L 43.99800109863281 -26.003000259399407 L 43.99800109863281 -9.003000259399412 L 43.99800109863281 -5.999999999999998 L 27.003000259399414 -5.999999999999998 L 27.003000259399414 -9.003000259399412 L 7.000999927520752 -9.003000259399412 L 7.000999927520752 -5.999999999999998 L -13.00100040435791 -5.999999999999998 L -13.00100040435791 -9.003000259399412 L -33.00299835205078 -9.003000259399412 L -33.00299835205078 -5.999999999999998 L -43.00299835205078 -5.999999999999998 L -49.99800109863281 -5.999999999999998 L -49.99800109863281 -9.003000259399412 L -49.99800109863281 -26.003000259399407 L -53 -26.003000259399407 L -53 -45.998001098632805 L -49.99800109863281 -45.998001098632805 L -49.99800109863281 -66.00299835205077 L -53 -66.00299835205077 L -53 -85.9980010986328 L -49.99800109863281 -85.9980010986328 L -49.99800109863281 -102.99800109863278 L -49.99800109863281 -105.99999999999997 L -33.00299835205078 -105.99999999999997 L -33.00299835205078 -102.99800109863278 L -12.998000144958496 -102.99800109863278 L -12.998000144958496 -105.99999999999997 L 6.998000144958496 -105.99999999999997 L 6.998000144958496 -102.99800109863278 L 27.003000259399414 -102.99800109863278 L 27.003000259399414 -105.99999999999997 L 43.99800109863281 -105.99999999999997 M -13.003000259399414 -156.99999999999997 L -13.003000259399414 -153.99800109863278 L 7.002999782562256 -153.99800109863278 L 7.002999782562256 -156.99999999999997 L 26.99799919128418 -156.99999999999997 L 26.99799919128418 -153.99800109863278 L 43.99800109863281 -153.99800109863278 L 43.99800109863281 -141.99800109863278 L 47 -141.99800109863278 L 47 -122.00299835205075 L 43.99800109863281 -122.00299835205075 L 43.99800109863281 -110.00299835205075 L 26.99799919128418 -110.00299835205075 L 26.99799919128418 -106.99999999999997 L 7.002999782562256 -106.99999999999997 L 7.002999782562256 -110.00299835205075 L -13.003000259399414 -110.00299835205075 L -13.003000259399414 -106.99999999999997 L -32.99800109863281 -106.99999999999997 L -32.99800109863281 -110.00299835205075 L -49.99800109863281 -110.00299835205075 L -49.99800109863281 -122.00299835205075 L -53 -122.00299835205075 L -53 -141.99800109863278 L -49.99800109863281 -141.99800109863278 L -49.99800109863281 -153.99800109863278 L -32.99800109863281 -153.99800109863278 L -32.99800109863281 -156.99999999999997 L -13.003000259399414 -156.99999999999997 M -32.99800109863281 -5.999999999999998 L -13.003000259399414 -5.999999999999998 L -13.003000259399414 -2.9979999065399165 L 7.002999782562256 -2.9979999065399165 L 7.002999782562256 -5.999999999999998 L 26.99799919128418 -5.999999999999998 L 26.99799919128418 -2.9979999065399165 L 43.99800109863281 -2.9979999065399165 L 43.99800109863281 9.003000259399412 L 47 9.003000259399412 L 47 14.00300025939941 L 47 28.997999191284173 L 43.99800109863281 28.997999191284173 L 43.99800109863281 40.998001098632805 L 26.99799919128418 40.998001098632805 L 26.99799919128418 43.99999999999999 L 7.002999782562256 43.99999999999999 L 7.002999782562256 40.998001098632805 L -13.003000259399414 40.998001098632805 L -13.003000259399414 43.99999999999999 L -32.99800109863281 43.99999999999999 L -32.99800109863281 40.998001098632805 L -43.00299835205078 40.998001098632805 L -49.99800109863281 40.998001098632805 L -49.99800109863281 28.997999191284173 L -53 28.997999191284173 L -53 9.003000259399412 L -49.99800109863281 9.003000259399412 L -49.99800109863281 -2.9979999065399165 L -43.00299835205078 -2.9979999065399165 L -32.99800109863281 -2.9979999065399165 L -32.99800109863281 -5.999999999999998 M 47 84.9980010986328 L 43.99800109863281 84.9980010986328 L 43.99800109863281 105.00299835205075 L 47 105.00299835205075 L 47 124.99800109863278 L 43.99800109863281 124.99800109863278 L 43.99800109863281 135.00300598144528 L 43.99800109863281 141.99800109863278 L 43.99800109863281 144.99999999999997 L 27.003000259399414 144.99999999999997 L 27.003000259399414 141.99800109863278 L 6.998000144958496 141.99800109863278 L 6.998000144958496 144.99999999999997 L -12.998000144958496 144.99999999999997 L -12.998000144958496 141.99800109863278 L -33.00299835205078 141.99800109863278 L -33.00299835205078 144.99999999999997 L -43.00299835205078 144.99999999999997 L -49.99800109863281 144.99999999999997 L -49.99800109863281 124.99800109863278 L -53 124.99800109863278 L -53 105.00299835205075 L -49.99800109863281 105.00299835205075 L -49.99800109863281 84.9980010986328 L -53 84.9980010986328 L -53 65.00299835205077 L -49.99800109863281 65.00299835205077 L -49.99800109863281 44.99999999999999 L -43.00299835205078 44.99999999999999 L -33.00299835205078 44.99999999999999 L -33.00299835205078 48.00299835205077 L -32.99800109863281 48.00299835205077 L -12.998000144958496 48.00299835205077 L -12.998000144958496 44.99999999999999 L 6.998000144958496 44.99999999999999 L 6.998000144958496 48.00299835205077 L 27.003000259399414 48.00299835205077 L 27.003000259399414 44.99999999999999 L 43.99800109863281 44.99999999999999 L 43.99800109863281 48.00299835205077 L 43.99800109863281 65.00299835205077 L 47 65.00299835205077 L 47 84.9980010986328 M -39.54600143432617 13.758000373840328 L -38 14.00300025939941 L -36.45399856567383 13.758000373840328 L -35.060001373291016 13.046999931335446 L -33.952999114990234 11.939999580383299 L -33.242000579833984 10.545999526977537 L -32.99800109863281 8.999999999999998 L -33.12552261352539 8.19200038909912 L -33.242000579833984 7.453999996185301 L -33.952999114990234 6.059999942779539 L -35.060001373291016 4.95300006866455 L -36.45399856567383 4.242000102996825 L -38 3.997999906539916 L -39.54600143432617 4.242000102996825 L -40.939998626708984 4.95300006866455 L -42.047000885009766 6.059999942779539 L -42.757999420166016 7.453999996185301 L -42.87495422363281 8.19200038909912 L -43.00299835205078 8.999999999999998 L -42.757999420166016 10.545999526977537 L -42.047000885009766 11.939999580383299 L -40.939998626708984 13.046999931335446 L -39.54600143432617 13.758000373840328 M -39.54600143432617 134.75799560546872 L -38 135.00300598144528 L -36.45399856567383 134.75799560546872 L -35.060001373291016 134.04699707031247 L -33.952999114990234 132.94000244140622 L -33.242000579833984 131.5460052490234 L -33.16719055175781 131.0720062255859 L -32.99800109863281 129.99999999999997 L -33.242000579833984 128.45399475097653 L -33.952999114990234 127.05999755859372 L -35.060001373291016 125.95300292968747 L -36.45399856567383 125.24199676513669 L -38 124.99800109863278 L -39.54600143432617 125.24199676513669 L -40.939998626708984 125.95300292968747 L -42.047000885009766 127.05999755859372 L -42.757999420166016 128.45399475097653 L -43.00299835205078 129.99999999999997 L -42.83311462402344 131.0720062255859 L -42.757999420166016 131.5460052490234 L -42.047000885009766 132.94000244140622 L -40.939998626708984 134.04699707031247 L -39.54600143432617 134.75799560546872 z" fill="none" stroke="rgb(255,0,0)" stroke-width="0.001mm" />
</svg>